<?xml version="1.0" encoding="UTF-8" standalone="no"?>
<svg
   xmlns:dc="http://purl.org/dc/elements/1.1/"
   xmlns:cc="http://creativecommons.org/ns#"
   xmlns:rdf="http://www.w3.org/1999/02/22-rdf-syntax-ns#"
   xmlns:svg="http://www.w3.org/2000/svg"
   xmlns="http://www.w3.org/2000/svg"
   xmlns:sodipodi="http://sodipodi.sourceforge.net/DTD/sodipodi-0.dtd"
   xmlns:inkscape="http://www.inkscape.org/namespaces/inkscape"
   width="169.33333mm"
   height="169.33333mm"
   viewBox="0 0 169.33333 169.33333"
   version="1.1"
   id="svg8"
   inkscape:version="1.0.2 (e86c870879, 2021-01-15)"
   sodipodi:docname="logo-circle.svg">
  <defs
     id="defs2" />
  <sodipodi:namedview
     id="base"
     pagecolor="#ffffff"
     bordercolor="#666666"
     borderopacity="1.0"
     inkscape:pageopacity="0.0"
     inkscape:pageshadow="2"
     inkscape:zoom="0.7"
     inkscape:cx="385.06334"
     inkscape:cy="189.01028"
     inkscape:document-units="mm"
     inkscape:current-layer="layer2"
     inkscape:document-rotation="0"
     showgrid="false"
     inkscape:window-width="1267"
     inkscape:window-height="861"
     inkscape:window-x="199"
     inkscape:window-y="0"
     inkscape:window-maximized="0" />
  <metadata
     id="metadata5">
    <rdf:RDF>
      <cc:Work
         rdf:about="">
        <dc:format>image/svg+xml</dc:format>
        <dc:type
           rdf:resource="http://purl.org/dc/dcmitype/StillImage" />
        <dc:title />
      </cc:Work>
    </rdf:RDF>
  </metadata>
  <g
     inkscape:groupmode="layer"
     id="layer2"
     inkscape:label="Layer 2"
     transform="translate(-20.56189,-54.806557)">
    <circle
       style="fill:#383838;fill-opacity:1;stroke-width:2.63529"
       id="path854"
       cx="105.22855"
       cy="139.47322"
       r="84.666664" />
  </g>
  <g
     inkscape:label="Layer 1"
     inkscape:groupmode="layer"
     id="layer1"
     transform="translate(-20.56189,-54.806557)">
    <g
       inkscape:label="Layer 1"
       id="layer1-6"
       transform="translate(52.008312,68.061745)">
      <path
         id="path14"
         style="fill:#2fe4fc;fill-opacity:1;fill-rule:nonzero;stroke:#2fe4fc;stroke-width:7.55906;stroke-miterlimit:4;stroke-dasharray:none;stroke-opacity:1"
         transform="matrix(0.26458333,0,0,0.26458333,-12.116499,11.619588)"
         d="m 326.68555,3.8925781 c -0.0331,-0.018033 -0.0886,-0.010333 -0.17383,0.03125 -3.17701,1.5505788 -6.33557,3.1485767 -9.46484,4.8007813 -5.95696,2.4141366 -11.76387,5.2427146 -17.50782,8.1152346 -0.64509,0.32262 -0.24233,1.421792 -0.36328,2.132812 -0.33583,1.937208 -0.68335,3.87277 -1.03906,5.806641 -1.08935,4.404291 -2.22261,8.797383 -3.36133,13.189453 -3.98574,14.349419 -7.93015,28.716028 -12.29297,42.957031 -3.40089,13.42749 -7.93414,26.522059 -12.35351,39.636719 -3.17582,9.82858 -6.4202,19.63999 -9.17383,29.58594 -4.26436,10.30046 -8.70661,20.52451 -13.25196,30.6914 -3.53818,7.25061 -6.91409,14.58314 -10.61523,21.75196 -16.69357,32.33412 -36.63718,63.04765 -60.91601,90.22461 -9.75901,10.31682 -13.43167,14.83913 -24.2168,23.82031 -3.90218,3.24947 -3.34764,2.7474 -11.36494,8.47448 -5.62915,3.24519 -7.7782,4.24519 -11.12557,5.28281 -8.72229,2.92774 -12.09272,4.009 -20.96457,6.11185 -11.960028,2.83483 -24.216972,4.19984 -36.46875,4.89648 -12.439521,0.50922 -24.876628,0.79215 -37.324219,0.30274 l -24.234375,17.60547 c 12.76738,-0.18822 25.522548,-0.30178 38.28125,-0.84766 16.056549,-0.81124 32.073223,-2.99134 47.533203,-7.50391 3.645842,-1.06416 7.226461,-2.34011 10.839841,-3.50976 3.82393,-1.56287 7.71788,-2.96513 11.47266,-4.6875 3.94335,-1.80888 7.83897,-3.74015 11.60351,-5.89649 20.8342,-11.9337 31.65142,-16.83377 47.34376,-30.44921 10.52913,-9.13569 14.11586,-13.66948 23.64843,-24.06836 21.61957,-24.77628 39.51464,-52.45692 54.90235,-81.45313 0.40161,3.92445 0.92707,7.8426 1.54101,11.74805 3.72503,18.09192 9.66087,36.04365 19.81836,51.61523 2.60466,3.99296 5.60396,7.71352 8.40625,11.57031 24.69343,27.4356 58.05042,43.41258 92.91406,53.92969 7.71814,2.32827 15.60021,4.07282 23.40039,6.10938 25.51123,4.97896 13.38369,3.0352 36.33985,6.08593 l 22.27539,-15.80468 c -23.6058,-2.21647 -11.16964,-0.64892 -37.26367,-4.99414 -7.81584,-1.94351 -15.7244,-3.55159 -23.44922,-5.83008 -34.23927,-10.0992 -66.68636,-26.24188 -90.32617,-53.60547 -2.69156,-3.80481 -5.59246,-7.47043 -8.07618,-11.41406 C 291.94572,234.85235 286.40494,217.05205 283,199.24023 c -2.25218,-15.80655 -2.9998,-31.72504 0.5293,-47.43945 2.45249,-10.97148 5.68508,-21.72916 9.15234,-32.41601 4.01547,-10.23535 7.82917,-20.54667 11.34766,-30.960942 4.0433,-11.967602 6.07726,-19.73044 9.45117,-31.701172 3.10846,-11.591411 5.87781,-23.268418 8.61914,-34.951172 1.23809,-4.294214 2.5028,-8.589617 3.54492,-12.9257809 0.27477,-1.1427099 1.81709,-3.8011308 0.69336,-3.4570312 -0.091,0.027864 -0.18058,0.059756 -0.27148,0.087891 0.33412,-0.674339 0.7922,-1.4895937 0.61914,-1.5839848 z"
         sodipodi:nodetypes="sccscccccccscsccsccccscscccccscsccccscscccscccscs" />
      <path
         style="fill:#2fe4fc;fill-opacity:1;fill-rule:nonzero;stroke:#2fe4fc;stroke-width:2;stroke-miterlimit:4;stroke-dasharray:none;stroke-opacity:1"
         id="path30"
         d="m 14.983129,90.103019 c 5.749878,0.0557 11.390392,-1.01898 16.988262,-2.20444 7.02788,-1.6838 14.02273,-3.64584 20.77316,-6.24804 1.32554,-0.51099 2.62439,-1.08869 3.93659,-1.63303 6.757523,-3.24492 13.310393,-7.01241 19.266163,-11.58071 1.18504,-0.90897 3.46834,-2.83818 4.65781,-3.83337 2.40934,-2.09505 1.27731,-1.06916 3.40646,-3.0662 0,0 -7.07482,2.90421 -7.07482,2.90421 v 0 c -2.0539,1.92859 -0.9588,0.93303 -3.29558,2.97536 -2.38113,2.00142 -4.76403,3.95741 -7.32296,5.73242 -1.01832,0.70636 -2.52339,0.9628 -3.09267,2.06363 -0.49749,0.96199 3.85705,-1.95114 2.84084,-1.57666 -1.29891,0.47865 -2.46456,1.2614 -3.69684,1.89209 -1.30788,0.55709 -2.60082,1.15065 -3.923643,1.67125 -6.69711,2.6357 -13.65638,4.59759 -20.64568,6.27672 -5.41014,1.12957 -10.879153,2.28777 -16.442676,1.99548 0,0 -6.374416,4.63129 -6.374416,4.63129 z" />
      <path
         id="path76"
         style="fill:#2fe4fc;fill-opacity:1;fill-rule:nonzero;stroke:#2fe4fc;stroke-width:7.55906;stroke-miterlimit:4;stroke-dasharray:none;stroke-opacity:1"
         transform="matrix(0.26458333,0,0,0.26458333,-12.116499,11.619588)"
         d="m 303.91797,104.7832 c -13.05352,0.0963 -26.26875,1.74862 -40.25586,4.55469 -6.33774,1.27151 -12.57281,3.00931 -18.85938,4.51367 -5.85172,1.93792 -11.81814,3.56126 -17.55664,5.8125 -5.31019,2.08324 -10.57923,4.349 -15.53711,7.16992 -20.31851,11.56071 -34.17001,17.66221 -48.18359,33.66016 -9.07782,10.36328 -10.14679,14.22656 -16.39258,26.31836 -3.74043,12.01436 -6.74689,18.13299 -6.24023,31.08789 0.83422,21.33007 10.55418,42.02815 22.10937,59.49023 5.03089,7.60268 11.00382,14.53763 16.50586,21.80665 27.40778,31.76202 61.85753,55.49041 100.9043,70.69335 23.15758,9.01652 30.78855,9.78479 54.25586,14.90821 27.42353,3.3606 14.4528,2.38363 38.87891,3.32617 l 21.99804,-15.91992 c -25.13151,0.0385 -11.81426,0.55623 -39.9375,-1.98047 -23.89712,-4.61571 -31.19309,-5.03153 -54.72851,-13.92578 -39.21972,-14.82153 -72.40941,-38.08918 -99.5293,-70.04883 -5.28567,-7.25892 -11.06366,-14.18454 -15.85742,-21.77734 -10.98357,-17.39679 -19.85264,-37.79427 -20.04883,-58.74219 -0.11981,-12.80421 2.8343,-18.40301 6.79687,-30.20508 6.4029,-11.76714 7.49143,-15.47645 16.67383,-25.4668 11.69588,-11.65924 17.89827,-14.47901 34.5918,-19.93945 6.25417,-1.56333 12.4527,-3.36469 18.76172,-4.68945 18.26842,-3.83603 37.24235,-6.16961 55.92187,-4.52344 14.86991,1.31048 19.76681,3.35043 34.03321,7.28125 5.38832,1.9375 10.85067,3.68304 16.16601,5.8125 19.81607,7.93894 39.03505,18.22819 55.22266,32.25391 l 25.25586,-15.66016 c -17.79158,-13.00426 -37.36726,-23.48674 -57.81836,-31.66602 -5.36829,-2.14699 -10.86336,-3.96195 -16.29492,-5.94335 -17.53816,-5.87637 -34.05284,-8.32499 -50.83594,-8.20118 z"
         sodipodi:nodetypes="sscssscsscsccccscsccccssccccscs" />
    </g>
  </g>
</svg>
